<?xml version="1.0" encoding="iso-8859-1"?>
<!-- Generator: Adobe Illustrator 19.0.0, SVG Export Plug-In . SVG Version: 6.00 Build 0)  -->
<svg version="1.1" id="Layer_1" xmlns="http://www.w3.org/2000/svg" xmlns:xlink="http://www.w3.org/1999/xlink" x="0px" y="0px"
	 viewBox="0 0 512 512" style="enable-background:new 0 0 512 512;" xml:space="preserve">
<g>
	<path style="fill:#786D5C;" d="M32,200H8c-4.418,0-8-3.582-8-8s3.582-8,8-8h24c4.418,0,8,3.582,8,8S36.418,200,32,200z"/>
	<path style="fill:#786D5C;" d="M32,312H8c-4.418,0-8-3.582-8-8s3.582-8,8-8h24c4.418,0,8,3.582,8,8S36.418,312,32,312z"/>
	<path style="fill:#786D5C;" d="M32,424H8c-4.418,0-8-3.582-8-8s3.582-8,8-8h24c4.418,0,8,3.582,8,8S36.418,424,32,424z"/>
	<path style="fill:#786D5C;" d="M32,256H8c-4.418,0-8-3.582-8-8s3.582-8,8-8h24c4.418,0,8,3.582,8,8S36.418,256,32,256z"/>
	<path style="fill:#786D5C;" d="M32,368H8c-4.418,0-8-3.582-8-8s3.582-8,8-8h24c4.418,0,8,3.582,8,8S36.418,368,32,368z"/>
	<path style="fill:#786D5C;" d="M504,104h-24c-4.418,0-8-3.582-8-8s3.582-8,8-8h24c4.418,0,8,3.582,8,8S508.418,104,504,104z"/>
	<path style="fill:#786D5C;" d="M504,216h-24c-4.418,0-8-3.582-8-8s3.582-8,8-8h24c4.418,0,8,3.582,8,8S508.418,216,504,216z"/>
	<path style="fill:#786D5C;" d="M504,328h-24c-4.418,0-8-3.582-8-8s3.582-8,8-8h24c4.418,0,8,3.582,8,8S508.418,328,504,328z"/>
	<path style="fill:#786D5C;" d="M504,160h-24c-4.418,0-8-3.582-8-8s3.582-8,8-8h24c4.418,0,8,3.582,8,8S508.418,160,504,160z"/>
	<path style="fill:#786D5C;" d="M504,272h-24c-4.418,0-8-3.582-8-8s3.582-8,8-8h24c4.418,0,8,3.582,8,8S508.418,272,504,272z"/>
</g>
<path style="fill:#B4DE6A;" d="M280,376V184H32v240h248c13.255,0,24-10.745,24-24l0,0C304,386.745,293.255,376,280,376z"/>
<rect x="128" y="184" style="fill:#FC8626;" width="48" height="240"/>
<path style="fill:#B4DE6A;" d="M232,88c-13.255,0-24,10.745-24,24v240c0-13.255,10.745-24,24-24h248V88H232z"/>
<path style="fill:#9FD444;" d="M208,112v240c0-13.255,10.745-24,24-24V88C218.745,88,208,98.745,208,112z"/>
<path style="fill:#87BD31;" d="M232,328c-13.255,0-24,10.745-24,24l0,0c0,13.255,10.745,24,24,24h48c13.255,0,24,10.745,24,24v-24
	v-48H232z"/>
<rect x="336" y="88" style="fill:#FC8626;" width="48" height="240"/>
<g>
	<rect x="64" y="184" style="fill:#FFD761;" width="32" height="240"/>
	<rect x="416" y="88" style="fill:#FFD761;" width="32" height="240"/>
</g>
</svg>
