<svg xmlns="http://www.w3.org/2000/svg" xmlns:xlink="http://www.w3.org/1999/xlink" version="1.1" x="0px" y="0px" viewBox="0 0 100 125" enable-background="new 0 0 100 100" xml:space="preserve"><g><path d="M80.749,54.063h-5.493V41.919c1.485-1.809,2.379-4.121,2.379-6.639V23.668c0-0.829-0.672-1.5-1.5-1.5H61.802   c-0.239-2.542-2.287-4.543-4.8-4.543H43c-2.513,0-4.561,2.001-4.799,4.543H23.866c-0.829,0-1.5,0.671-1.5,1.5v11.61   c0,2.518,0.894,4.83,2.379,6.639v12.145h-5.493c-0.829,0-1.5,0.672-1.5,1.5v15.85c0,3.133,2.549,5.682,5.683,5.682h1.335   c0.248,3.319,3.461,5.956,7.387,5.956h35.688c3.926,0,7.139-2.637,7.387-5.956h1.335c3.134,0,5.683-2.549,5.683-5.682v-15.85   C82.249,54.734,81.577,54.063,80.749,54.063z M43,20.625h14.002c0.865,0,1.588,0.66,1.787,1.543H41.212   C41.412,21.285,42.135,20.625,43,20.625z M25.366,25.168h49.269V35.28c0,2.118-0.889,4.029-2.309,5.391h-0.07v0.064   c-1.337,1.251-3.127,2.023-5.099,2.023H56.69v-0.334c0-0.829-0.672-1.5-1.5-1.5H44.812c-0.829,0-1.5,0.671-1.5,1.5v0.334H32.846   c-1.972,0-3.763-0.773-5.101-2.024V40.67h-0.069c-1.42-1.362-2.31-3.273-2.31-5.392V25.168z M20.752,71.412v-14.35h3.993v17.031   h-1.311C21.956,74.094,20.752,72.891,20.752,71.412z M72.256,76.684c0,1.856-1.979,3.366-4.411,3.366H32.156   c-2.432,0-4.411-1.51-4.411-3.366V44.424c1.511,0.846,3.249,1.333,5.101,1.333h10.466v0.334c0,0.829,0.671,1.5,1.5,1.5H55.19   c0.828,0,1.5-0.671,1.5-1.5v-0.334h10.467c1.851,0,3.588-0.487,5.099-1.333V76.684z M79.249,71.412   c0,1.479-1.203,2.682-2.683,2.682h-1.311V57.063h3.993V71.412z"/><path d="M66.873,56.167H33.129c-0.829,0-1.5,0.672-1.5,1.5v14.106c0,2.6,2.115,4.715,4.715,4.715h27.314   c2.6,0,4.715-2.115,4.715-4.715V57.667C68.373,56.839,67.701,56.167,66.873,56.167z M65.373,71.773c0,0.945-0.77,1.715-1.715,1.715   H36.344c-0.946,0-1.715-0.77-1.715-1.715V59.167h30.744V71.773z"/></g></svg>
