<svg xmlns:dc="http://purl.org/dc/elements/1.1/" xmlns:cc="http://creativecommons.org/ns#" xmlns:rdf="http://www.w3.org/1999/02/22-rdf-syntax-ns#" xmlns:svg="http://www.w3.org/2000/svg" xmlns="http://www.w3.org/2000/svg" xmlns:sodipodi="http://sodipodi.sourceforge.net/DTD/sodipodi-0.dtd" xmlns:inkscape="http://www.inkscape.org/namespaces/inkscape" version="1.1" x="0px" y="0px" viewBox="0 0 100 125"><g transform="translate(0,-952.36218)"><path style="text-indent:0;text-transform:none;direction:ltr;block-progression:tb;baseline-shift:baseline;color:#000000;enable-background:accumulate;" d="m 38,966.36239 c -0.5173,0.01 -0.7289,0.2725 -0.875,0.4688 l -6.7188,11.5312 -14.4062,0 c -5.5227,0 -10.0000005,4.4773 -10.0000005,10 l 0,39.99991 c 0,5.5227 4.4773005,10 10.0000005,10 l 68,0 c 5.5227,0 10,-4.4773 10,-10 l 0,-39.99991 c 0,-5.5227 -4.4773,-10 -10,-10 l -14.4062,0 -6.7188,-11.5312 c -0.183801,-0.2935 -0.5289,-0.4783 -0.875,-0.4688 l -24,0 z m 0.5938,2 22.8124,0 5.8438,10 -34.5,0 5.8438,-10 z m -22.5938,12 68,0 c 4.4493,0 8,3.5507 8,8 l 0,39.99991 c 0,4.4493 -3.5507,8 -8,8 l -68.000001,0 c -4.4493,0 -7.9999995,-3.5507 -7.9999995,-8 l 0,-39.99991 c 0,-4.4493 3.5506995,-8 7.9999995,-8 z m 34,6 c -12.138301,0 -22.000001,9.8616 -22.000001,22.00001 0,12.1383 9.8617,21.9999 22.000001,21.9999 12.138499,0 22,-9.8616 22,-21.9999 0,-12.13841 -9.861501,-22.00001 -22,-22.00001 z m 0,2 c 11.057699,0 20,8.9425 20,20.00001 0,11.0574 -8.942301,19.9999 -20,19.9999 -11.057501,0 -20.000001,-8.9425 -20.000001,-19.9999 0,-11.05751 8.9425,-20.00001 20.000001,-20.00001 z m 29,0 c -2.1973,0 -4,1.8027 -4,4 0,2.1973 1.8027,4 4,4 2.1973,0 4,-1.8027 4,-4 0,-2.1973 -1.8027,-4 -4,-4 z m 0,2 c 1.116299,0 2,0.8836 2,2 0,1.1164 -0.883701,2 -2,2 -1.1163,0 -2,-0.8836 -2,-2 0,-1.1164 0.8837,-2 2,-2 z m -29,6 c -6.6155,0 -12,5.38451 -12,12.00001 0,6.6155 5.3845,11.9999 12,11.9999 6.615499,0 12,-5.3844 12,-11.9999 0,-6.6155 -5.384501,-12.00001 -12,-12.00001 z m 0,2 c 5.5347,0 10,4.46531 10,10.00001 0,5.5347 -4.4653,9.9999 -10,9.9999 -5.534701,0 -10,-4.4652 -10,-9.9999 0,-5.5347 4.465299,-10.00001 10,-10.00001 z" fill="#ffffff" fill-opacity="1" stroke="none" marker="none" visibility="visible" display="inline" overflow="visible"/></g></svg>
