<svg xmlns="http://www.w3.org/2000/svg" viewBox="0 0 30.42 42.225" x="0px" y="0px"><title>camp-chair</title><g data-name="Layer 2"><g data-name="Layer 1"><path d="M29.84,14.25c-.71-.79-1.9-1-3.61-.77a.72.72,0,0,1-.82-.55c-.26-1.6,1-4.57,1.9-6.06l.12-.26c.19-.55,1.1-3.4-.17-5.23A3.22,3.22,0,0,0,24.55,0h0A9.34,9.34,0,0,0,21,1.07a17.06,17.06,0,0,1-6.15,1.75A14,14,0,0,1,9.21,1.09,8.4,8.4,0,0,0,5.88,0,3.22,3.22,0,0,0,3.16,1.37C1.9,3.2,2.8,6.05,3,6.6l.12.26c.59,1,2.2,4.26,1.9,6.06a.73.73,0,0,1-.82.55c-1.71-.27-2.89,0-3.61.77A2.4,2.4,0,0,0,.1,16.56a2.9,2.9,0,0,0,1.69,1.72L3.53,30.76a3.45,3.45,0,0,0,2.18,2.77A3.52,3.52,0,0,0,7,33.78a3.45,3.45,0,0,0,2.2-.8l6-4.94,6,4.94a3.45,3.45,0,0,0,2.2.8,3.51,3.51,0,0,0,1.28-.25,3.45,3.45,0,0,0,2.18-2.77l1.74-12.48a2.9,2.9,0,0,0,1.69-1.72A2.4,2.4,0,0,0,29.84,14.25ZM5.79,5.49a4,4,0,0,1-.15-2.42S5.82,3,5.94,3a10.22,10.22,0,0,1,2,.81,16.55,16.55,0,0,0,7,2c2.65,0,5.35-1.15,7.33-2A12.79,12.79,0,0,1,24.48,3c.14,0,.29,0,.32.07a4,4,0,0,1-.15,2.42c-.52.91-2.68,4.94-2.19,7.92a3.68,3.68,0,0,0,2.61,2.93,75.61,75.61,0,0,1-19.7,0A3.69,3.69,0,0,0,8,13.41C8.46,10.43,6.3,6.4,5.79,5.49ZM22.21,19.72l-7,5.74-7-5.74c2,.19,4.31.29,7,.29S20.23,19.9,22.21,19.72ZM7.92,31.43a1.49,1.49,0,0,1-2.42-.94L3.91,19l.44.11,9.28,7.61Zm17-.94a1.49,1.49,0,0,1-2.42.94l-5.71-4.68,9.28-7.61.44-.11Z"/></g></g></svg>
