<svg xmlns:dc="http://purl.org/dc/elements/1.1/" xmlns:cc="http://creativecommons.org/ns#" xmlns:rdf="http://www.w3.org/1999/02/22-rdf-syntax-ns#" xmlns:svg="http://www.w3.org/2000/svg" xmlns="http://www.w3.org/2000/svg" xmlns:sodipodi="http://sodipodi.sourceforge.net/DTD/sodipodi-0.dtd" xmlns:inkscape="http://www.inkscape.org/namespaces/inkscape" version="1.1" x="0px" y="0px" viewBox="0 0 100 125"><g transform="translate(0,-952.36218)"><path style="text-indent:0;text-transform:none;direction:ltr;block-progression:tb;baseline-shift:baseline;color:#000000;enable-background:accumulate;" d="m 47.215166,960.36394 c -0.5827,0 -1.1664,0.01 -1.75,0.031 -3.1123,0.1164 -6.2472,0.585 -9.3125,1.4063 -22.354999,5.99 -35.67749957,29.08245 -29.6874996,51.43756 5.9900006,22.355 29.0824996,35.6775 51.4374996,29.6875 22.355,-5.99 35.6775,-29.0825 29.6875,-51.43761 a 4.0003996,4.0004008 0 1 0 -7.7188,2.0625 c 4.871,18.17891 -5.8524,36.78531 -24.0312,41.65641 -18.1788,4.8709 -36.7852,-5.8525 -41.656299,-24.0313 -4.8709004,-18.17891 5.852499,-36.78526 24.031299,-41.65636 9.9301,-2.6607 20.5381,-0.6831 28.8437,5.375 a 4.0034712,4.0034724 0 1 0 4.7188,-6.4687 c -7.2107,-5.2595 -15.8214,-8.0259 -24.5625,-8.0625 z m 43.5625,2.9688 a 4.0004,4.0004 0 0 0 -2.7188,1.2812 c -10.5437,11.0315 -31.616,33.82435 -43.3125,46.15626 l -14.0625,-12.40631 a 4.006952,4.006952 0 1 0 -5.3125,6.00001 l 17,15.0001 a 4.0004,4.0004 0 0 0 5.5625,-0.25 c 11.1848,-11.702 34.8687,-37.45176 45.9063,-49.00006 a 4.0004,4.0004 0 0 0 -3.0625,-6.7812 z" fill="#000000" fill-opacity="1" stroke="none" marker="none" visibility="visible" display="inline" overflow="visible"/></g></svg>
