<svg xmlns="http://www.w3.org/2000/svg" xmlns:xlink="http://www.w3.org/1999/xlink" version="1.1" x="0px" y="0px" viewBox="0 0 70.7 88.375" enable-background="new 0 0 70.7 70.7" xml:space="preserve"><path d="M63.8,28.2l-0.3-0.7l-0.8,0.1c-3.2,0.6-6.3,0.8-7.9,0.9c0-5-1.3-8.9-3.8-11.6c-3.2-3.4-7.5-3.6-8.7-3.6c-0.2,0-0.4,0-0.4,0  l-24.4,8.2c-1.9,0.8-3.5,1.6-4.8,2.6C8.1,27.2,6,31.7,6,38.2c0,9.6,8.3,17.1,18.9,17.1c7.9,0,10.1-0.4,12.8-0.9  c0.8-0.1,1.7-0.3,2.8-0.5l0.2,0L64.6,38l0-0.5C65,30.9,63.9,28.3,63.8,28.2z M61.9,29.8L39.2,44.6c-2,0.5-6.4,1-9.8,1.4  c0.7-0.2,1.3-0.5,1.7-0.6c8-3.7,21.4-13.7,22.9-14.9C54.7,30.5,58.1,30.4,61.9,29.8z M42.2,15.3c0.7,0,4.6,0.1,7.4,3  c2.3,2.4,3.4,6.2,3.2,11.2l0,0.7c-3,2.3-14.9,10.9-22.1,14.3c-0.2,0.1-0.6,0.2-1,0.4c0.2-0.2,0.3-0.3,0.4-0.5  c3.9-5.1,3.9-10.9,0.1-15.7c-2.4-3.1-6.5-5.4-10.8-5.7L42.2,15.3z M37.4,52.4c-2.5,0.5-4.7,0.8-12.4,0.8C15.4,53.3,8,46.6,8,38.2  c0-5.8,1.8-9.7,5.8-12.5c0.8-0.5,1.7-1,2.6-1.5c5.1-1,10.2,1.5,13,5.1c3.5,4.4,3.4,9.8-0.1,14.5C27.6,46,24,47,20.4,46.2  c-3.4-0.7-8.2-4.3-6.9-10.9c0.4-2.1,1.7-4,3.5-5.1c1.1-0.7,2.9-1.3,5.3-0.5c3.4,1.1,5,4,4.2,7.6c-0.3,1.7-1.4,2.8-2.9,3  c-1.4,0.2-3-0.3-3.6-1.4c-0.6-1-0.4-2.2,0.7-3.5c0.2-0.2,0.1-0.5-0.1-0.7c-0.2-0.2-0.5-0.1-0.7,0.1c-1.7,2.2-1.2,3.9-0.7,4.7  c0.8,1.4,2.8,2.2,4.6,1.9c1.9-0.3,3.3-1.7,3.7-3.8c1-4.9-1.9-7.8-4.9-8.8c-2.1-0.7-4.2-0.5-6.1,0.6c-2,1.2-3.5,3.3-4,5.8  c-1.4,7.3,4,11.3,7.7,12.1c0.8,0.2,1.7,0.3,2.5,0.3c0.5,0,1,0,1.4-0.1c0.1,0.1,0.2,0.1,0.3,0.1c0,0,0,0,0,0c0.4,0,10.4-0.9,14.4-1.8  l0.8,6.3C38.8,52.2,38.1,52.3,37.4,52.4z M62.6,36.9L40.7,51.5L40,45.3l22.4-14.6C62.6,31.9,62.8,34,62.6,36.9z"/></svg>
