<svg xmlns="http://www.w3.org/2000/svg" xmlns:xlink="http://www.w3.org/1999/xlink" version="1.1" x="0px" y="0px" viewBox="0 0 3968.5 4960.625" enable-background="new 0 0 3968.5 3968.5" xml:space="preserve"><g><path fill="#000000" d="M2311.4,130h-654.3c-406.3,0-736.8,330.5-736.8,736.8v2555.7c0,229.4,186.6,415.9,415.9,415.9h1296   c229.4,0,415.9-186.6,415.9-415.9V866.8C3048.2,460.5,2717.7,130,2311.4,130z M2937.1,3422.6c0,168.1-136.7,304.8-304.8,304.8   h-1296c-168.1,0-304.8-136.8-304.8-304.8v-78.5h1905.7V3422.6z M2937.1,3233H1031.4v-370.1h1905.7V3233z M2937.1,2751.8H1031.4   v-372.1h1905.7V2751.8z M2937.1,2268.6H1031.4v-269.4c49.5,56.7,122.7,111.8,230.2,157.3c88.5,37.5,158.3,54.9,219.6,54.9   c0,0,0,0,0,0c136.9,0,211.1-86.6,305.1-196.2c36.1-42.1,75.2-87.7,123.1-135.9h1027.7V2268.6z M1042.8,1740.4   c17.5,1.6,38.4,2.8,62.5,2.8c136.4,0,349.8-36.2,591.4-208.8c227.5-162.5,689.3-298.6,997.1-376.5   c-225.7,150-545.9,369.8-750.6,540.2c-108.6,90.4-182.1,176.1-241.2,245.1c-93.6,109.1-138.4,157.4-220.7,157.4   c-45.3,0-102.9-15.1-176.3-46.1C1072.1,1955.6,1041.4,1813.2,1042.8,1740.4z M2937.1,1768.3h-904.7   c269.6-220.9,722.3-519.2,904.7-637.4V1768.3z M2937.1,986.4c-185.8,39.6-967.4,216.3-1305.1,457.5   c-217.6,155.5-406.6,188.1-526.8,188.1c-32.4,0-57.5-2.5-73.8-4.8V866.8c0-345,280.7-625.7,625.7-625.7h654.3   c345,0,625.7,280.7,625.7,625.7V986.4z"/><path fill="#000000" d="M2363.2,475.5h-772.4c-145.4,0-263.7,118.3-263.7,263.7v4.2c0,145.4,118.3,263.7,263.7,263.7h772.4   c145.4,0,263.7-118.3,263.7-263.7v-4.2C2626.9,593.8,2508.6,475.5,2363.2,475.5z M2515.8,743.4c0,84.2-68.5,152.6-152.6,152.6   h-772.4c-84.2,0-152.6-68.5-152.6-152.6v-4.2c0-84.2,68.5-152.6,152.6-152.6h772.4c84.2,0,152.6,68.5,152.6,152.6V743.4z"/></g></svg>
