<svg xmlns="http://www.w3.org/2000/svg" xmlns:xlink="http://www.w3.org/1999/xlink" version="1.1" x="0px" y="0px" viewBox="0 0 100 125" enable-background="new 0 0 100 100" xml:space="preserve"><path d="M49.998,12.807c20.508,0,37.194,16.687,37.194,37.193c0,20.507-16.687,37.193-37.194,37.193  c-20.506,0-37.19-16.687-37.19-37.193C12.808,29.494,29.492,12.807,49.998,12.807 M49.998,5C25.149,5,5.001,25.147,5.001,50  c0,24.851,20.148,45,44.997,45s45.001-20.149,45.001-45C94.999,25.147,74.847,5,49.998,5 M41.115,40.553  c0,3.305-2.676,5.984-5.981,5.984s-5.985-2.679-5.985-5.984c0-3.305,2.68-5.987,5.985-5.987S41.115,37.248,41.115,40.553   M64.863,34.625c-3.302,0-5.981,2.676-5.981,5.98c0,3.305,2.68,5.984,5.981,5.984c3.308,0,5.99-2.679,5.99-5.984  C70.854,37.301,68.171,34.625,64.863,34.625 M70.078,67.635c0-2.15-1.742-3.9-3.9-3.9H33.829c-2.156,0-3.905,1.75-3.905,3.9  c0,2.162,1.749,3.904,3.905,3.904h32.349C68.336,71.539,70.078,69.797,70.078,67.635"/><text x="0" y="115" fill="#000000" font-size="5px" font-weight="bold" font-family="'Helvetica Neue', Helvetica, Arial-Unicode, Arial, Sans-serif">Created by Philipp Koerner</text><text x="0" y="120" fill="#000000" font-size="5px" font-weight="bold" font-family="'Helvetica Neue', Helvetica, Arial-Unicode, Arial, Sans-serif">from the Noun Project</text></svg>