<svg xmlns="http://www.w3.org/2000/svg" xmlns:xlink="http://www.w3.org/1999/xlink" version="1.1" x="0px" y="0px" viewBox="0 0 100 125" enable-background="new 0 0 100 100" xml:space="preserve"><g><g><line fill="none" x1="37" y1="33" x2="37" y2="26.4"/></g><g><line fill="none" x1="37" y1="21.4" x2="37" y2="11"/></g></g><g><path d="M50.5,86.7c-20.1,0-36.4-16.3-36.4-36.4s16.3-36.4,36.4-36.4c20.1,0,36.4,16.3,36.4,36.4S70.6,86.7,50.5,86.7z M50.5,19.9   c-16.8,0-30.4,13.6-30.4,30.4s13.6,30.4,30.4,30.4c16.8,0,30.4-13.6,30.4-30.4S67.3,19.9,50.5,19.9z"/></g><g><circle cx="38.6" cy="40.2" r="4.2"/></g><g><circle cx="62.3" cy="40.2" r="4.2"/></g><g><path d="M62,67H39c-1.7,0-3-1.3-3-3s1.3-3,3-3h23c1.7,0,3,1.3,3,3S63.7,67,62,67z"/></g><circle fill="none" stroke="#000000" stroke-width="6" stroke-miterlimit="10" cx="-182.5" cy="-130.7" r="33.4"/><circle cx="-194.4" cy="-137.8" r="4.2"/><circle cx="-170.7" cy="-137.8" r="4.2"/><line fill="none" stroke="#000000" stroke-width="6" stroke-linecap="round" stroke-miterlimit="10" x1="-194" y1="-117" x2="-171" y2="-117"/><circle stroke="#000000" stroke-width="6" stroke-miterlimit="10" cx="-182.5" cy="-33.6" r="33.4"/><circle fill="#000000" cx="-194.4" cy="-43.6" r="4.2"/><circle fill="#000000" cx="-170.7" cy="-43.6" r="4.2"/><line fill="#000000" stroke="#FFFFFF" stroke-width="6" stroke-linecap="round" stroke-miterlimit="10" x1="-194" y1="-20" x2="-171" y2="-20"/><circle fill="none" stroke="#000000" stroke-width="6" stroke-miterlimit="10" cx="-103.1" cy="-130.7" r="33.4"/><circle cx="-115.1" cy="-137.8" r="4.2"/><circle cx="-91.3" cy="-137.8" r="4.2"/><path fill="none" stroke="#000000" stroke-width="6" stroke-linecap="round" stroke-linejoin="round" stroke-miterlimit="10" d="  M-115.1-119.6c0,0,12,4.7,23.7,0"/><circle stroke="#000000" stroke-width="6" stroke-miterlimit="10" cx="-103.1" cy="-36.5" r="33.4"/><circle fill="#000000" cx="-115.1" cy="-46.6" r="4.2"/><circle fill="#000000" cx="-91.3" cy="-46.6" r="4.2"/><path fill="#000000" stroke="#FFFFFF" stroke-width="6" stroke-linecap="round" stroke-miterlimit="10" d="M-115.1-25.4  c0,0,12,4.7,23.7,0"/><circle fill="none" stroke="#000000" stroke-width="6" stroke-miterlimit="10" cx="-24.2" cy="-130.7" r="33.4"/><circle cx="-36.1" cy="-137.8" r="4.2"/><circle cx="-12.4" cy="-137.8" r="4.2"/><path fill="none" stroke="#000000" stroke-width="6" stroke-linecap="round" stroke-linejoin="round" stroke-miterlimit="10" d="  M-39.5-119.6c0,0,15.9,17,30.9,0"/><circle stroke="#000000" stroke-width="6" stroke-miterlimit="10" cx="-24.2" cy="-39.5" r="33.4"/><circle fill="#000000" cx="-36.1" cy="-49.6" r="4.2"/><circle fill="#000000" cx="-12.4" cy="-49.6" r="4.2"/><path fill="#000000" stroke="#FFFFFF" stroke-width="6" stroke-linecap="round" stroke-miterlimit="10" d="M-39.5-28.3  c0,0,15.9,17,30.9,0"/></svg>
