<svg xmlns="http://www.w3.org/2000/svg" xmlns:xlink="http://www.w3.org/1999/xlink" version="1.1" x="0px" y="0px" viewBox="0 0 100 125" style="enable-background:new 0 0 100 100;" xml:space="preserve"><style type="text/css">
	.st0{fill-rule:evenodd;clip-rule:evenodd;}
</style><path class="st0" d="M50.5,90.5c-22.1,0-40-17.9-40-40s17.9-40,40-40c22.1,0,40,17.9,40,40S72.6,90.5,50.5,90.5z M50.5,14.5  c-19.9,0-36,16.1-36,36c0,6.5,1.8,12.7,4.8,18c7.3-9.1,18.6-15,31.2-15c12.6,0,23.9,5.8,31.2,15c3.1-5.3,4.8-11.4,4.8-18  C86.5,30.6,70.4,14.5,50.5,14.5z M50.5,49.5c-7.7,0-14-6.3-14-14s6.3-14,14-14s14,6.3,14,14S58.2,49.5,50.5,49.5z M50.5,25.5  c-5.5,0-10,4.5-10,10s4.5,10,10,10s10-4.5,10-10S56,25.5,50.5,25.5z"/></svg>
